<svg version="1.1" id="Layer_1" xmlns="http://www.w3.org/2000/svg" xmlns:xlink="http://www.w3.org/1999/xlink" x="0px" y="0px"
	 width="100%" viewBox="0 0 512 512" enable-background="new 0 0 512 512" xml:space="preserve">
<path fill="#010100" opacity="1.000000" stroke="none" 
	d="
M300.000000,513.000000 
	C200.024277,513.000000 100.548546,513.000000 1.036411,513.000000 
	C1.036411,342.399261 1.036411,171.798492 1.036411,1.098866 
	C171.559067,1.098866 342.118225,1.098866 512.838684,1.098866 
	C512.838684,171.666550 512.838684,342.333252 512.838684,513.000000 
	C442.131805,513.000000 371.315887,513.000000 300.000000,513.000000 
M33.646976,237.499817 
	C33.647278,301.147980 33.614727,364.796143 33.665333,428.444275 
	C33.683533,451.334137 48.335815,466.287781 70.919067,466.300598 
	C175.388885,466.359955 279.858765,466.365387 384.328552,466.294922 
	C406.427216,466.279999 421.143585,451.407104 421.343872,429.208405 
	C421.464142,415.880035 421.374542,402.549652 421.353302,389.220215 
	C421.351257,387.948883 421.164246,386.677826 421.033600,385.036285 
	C418.905182,385.036285 417.103577,385.036285 415.301971,385.036285 
	C390.309174,385.036194 365.316406,385.048279 340.323608,385.032104 
	C321.010498,385.019623 309.083160,373.179504 309.041809,353.999817 
	C309.021698,344.669220 309.025146,335.338501 309.040588,326.007904 
	C309.072540,306.665253 320.813965,294.854401 340.117584,294.827393 
	C365.276947,294.792206 390.436401,294.818146 415.595795,294.817780 
	C417.373108,294.817780 419.150391,294.817810 420.874603,294.817810 
	C420.874603,277.033569 421.429016,259.878082 420.643494,242.784149 
	C420.243439,234.078217 414.991394,226.927933 408.143982,221.333282 
	C400.523926,215.107361 391.607880,213.294113 382.000092,213.298721 
	C274.364532,213.350266 166.728912,213.301865 59.093403,213.387207 
	C50.557781,213.393967 42.531174,212.152603 35.249130,207.464279 
	C34.937420,207.263596 34.383823,207.438614 33.646923,207.438614 
	C33.646923,217.195221 33.646923,226.847504 33.646976,237.499817 
M137.329071,133.641922 
	C137.716690,158.821350 147.009964,179.919205 166.370163,196.245148 
	C168.186478,197.776810 171.050079,198.799240 173.434631,198.813034 
	C203.074951,198.984451 232.717117,199.001907 262.356964,198.794586 
	C265.033356,198.775864 268.248291,197.567108 270.279358,195.823380 
	C286.645416,181.772644 295.970215,163.947495 298.227997,142.414505 
	C304.070648,86.691917 251.330093,42.028969 197.200455,56.648632 
	C165.501923,65.209961 138.637070,93.807831 137.329071,133.641922 
M418.148590,63.466511 
	C415.760773,64.986092 413.552795,67.033882 410.949402,67.920181 
	C404.679138,70.054810 397.843140,70.829178 391.908173,73.595680 
	C364.606628,86.321884 348.732513,108.749802 339.985291,136.818832 
	C338.448334,141.750854 337.653687,146.914215 336.516235,151.970734 
	C338.182251,151.783676 338.704529,151.207733 339.175751,150.592682 
	C361.062042,122.027306 390.830597,110.374260 425.923737,110.280647 
	C432.471191,110.263176 434.345734,111.998451 435.980560,118.382721 
	C436.919617,122.049828 437.886505,125.709801 439.090149,130.329956 
	C453.161285,111.294258 466.650269,93.046120 480.415924,74.423706 
	C458.657501,65.465073 437.557251,56.777431 416.304565,48.027027 
	C417.084869,53.394936 417.764832,58.072517 418.148590,63.466511 
M379.499878,370.607300 
	C393.998230,370.605286 408.497650,370.708252 422.994629,370.566528 
	C433.696960,370.461914 439.085968,365.036377 439.161499,354.583893 
	C439.232574,344.752197 439.238647,334.919128 439.160156,325.087524 
	C439.078735,314.893494 433.591248,309.244049 423.376007,309.207245 
	C395.379578,309.106354 367.382263,309.101166 339.385895,309.211914 
	C329.230255,309.252075 323.814392,314.921570 323.718170,325.207733 
	C323.629333,334.705811 323.662415,344.205536 323.705994,353.704254 
	C323.758881,365.230560 328.952850,370.500000 340.504364,370.582886 
	C353.168945,370.673767 365.834625,370.605682 379.499878,370.607300 
M83.500092,155.685959 
	C73.671013,155.719604 63.833813,155.516434 54.015129,155.853210 
	C44.113365,156.192841 35.801205,163.690689 34.108128,173.162476 
	C31.638655,186.977753 41.709778,198.827209 56.312950,198.887207 
	C85.301994,199.006302 114.291870,198.925964 143.281403,198.917923 
	C144.373535,198.917618 145.465637,198.811676 147.238235,198.719620 
	C146.202255,197.233292 145.640533,196.288132 144.946564,195.452866 
	C136.198669,184.923889 129.869370,173.085342 126.414787,159.859970 
	C125.468704,156.238007 123.740166,155.591370 120.486435,155.630035 
	C108.492462,155.772568 96.495766,155.686066 83.500092,155.685959 
M328.332825,191.564911 
	C323.802216,189.373795 323.601227,184.879044 323.131958,180.870743 
	C322.171631,172.668091 321.713745,164.406647 321.044495,156.169861 
	C311.545135,154.657867 311.567535,154.665115 308.801544,163.211197 
	C305.019653,174.896317 299.299011,185.532532 291.498596,195.040115 
	C290.645844,196.079498 289.939636,197.239090 288.756134,198.926559 
	C317.043762,198.926559 344.351746,198.902863 371.659546,198.959641 
	C374.720581,198.966003 375.783600,197.602844 375.770691,194.723938 
	C375.718414,183.065903 375.705994,171.407272 375.773773,159.749420 
	C375.791229,156.751755 374.530212,155.575989 371.567383,155.653687 
	C366.907379,155.775879 362.203156,155.326233 357.594696,155.827332 
	C355.306915,156.076096 352.118317,157.334976 351.179138,159.110947 
	C346.700714,167.579605 342.544098,176.254791 338.896820,185.113358 
	C336.620209,190.642838 335.136749,192.232376 328.332825,191.564911 
z"/>
<path fill="#CE9D76" opacity="1.000000" stroke="none" 
	d="
M33.646950,236.999817 
	C33.646923,226.847504 33.646923,217.195221 33.646923,207.438614 
	C34.383823,207.438614 34.937420,207.263596 35.249130,207.464279 
	C42.531174,212.152603 50.557781,213.393967 59.093403,213.387207 
	C166.728912,213.301865 274.364532,213.350266 382.000092,213.298721 
	C391.607880,213.294113 400.523926,215.107361 408.143982,221.333282 
	C414.991394,226.927933 420.243439,234.078217 420.643494,242.784149 
	C421.429016,259.878082 420.874603,277.033569 420.874603,294.817810 
	C419.150391,294.817810 417.373108,294.817780 415.595795,294.817780 
	C390.436401,294.818146 365.276947,294.792206 340.117584,294.827393 
	C320.813965,294.854401 309.072540,306.665253 309.040588,326.007904 
	C309.025146,335.338501 309.021698,344.669220 309.041809,353.999817 
	C309.083160,373.179504 321.010498,385.019623 340.323608,385.032104 
	C365.316406,385.048279 390.309174,385.036194 415.301971,385.036285 
	C417.103577,385.036285 418.905182,385.036285 421.033600,385.036285 
	C421.164246,386.677826 421.351257,387.948883 421.353302,389.220215 
	C421.374542,402.549652 421.464142,415.880035 421.343872,429.208405 
	C421.143585,451.407104 406.427216,466.279999 384.328552,466.294922 
	C279.858765,466.365387 175.388885,466.359955 70.919067,466.300598 
	C48.335815,466.287781 33.683533,451.334137 33.665333,428.444275 
	C33.614727,364.796143 33.647278,301.147980 33.646950,236.999817 
z"/>
<path fill="#FAB931" opacity="1.000000" stroke="none" 
	d="
M137.349701,133.189087 
	C138.637070,93.807831 165.501923,65.209961 197.200455,56.648632 
	C251.330093,42.028969 304.070648,86.691917 298.227997,142.414505 
	C295.970215,163.947495 286.645416,181.772644 270.279358,195.823380 
	C268.248291,197.567108 265.033356,198.775864 262.356964,198.794586 
	C232.717117,199.001907 203.074951,198.984451 173.434631,198.813034 
	C171.050079,198.799240 168.186478,197.776810 166.370163,196.245148 
	C147.009964,179.919205 137.716690,158.821350 137.349701,133.189087 
M219.851425,195.273239 
	C225.648972,193.603851 225.197388,188.906494 225.301346,184.342621 
	C225.356079,181.939255 224.248596,179.365952 227.930939,177.752426 
	C239.376114,172.737411 244.733551,163.684570 244.136078,151.121155 
	C243.569031,139.197388 235.691528,133.795517 225.742844,130.097290 
	C221.075836,128.362427 216.218094,126.904060 211.910461,124.492256 
	C204.689011,120.449036 204.472809,111.209991 211.086884,106.192711 
	C218.551437,100.530273 228.220367,105.174652 229.799698,115.181229 
	C230.634476,120.470383 233.595016,123.320114 237.760773,122.844330 
	C242.008270,122.359207 244.414597,118.986115 244.126938,113.715729 
	C243.712692,106.126274 240.770157,99.220695 234.420151,95.425194 
	C227.920105,91.540031 223.782745,87.776207 224.869522,79.482582 
	C225.344925,75.854538 221.861847,73.722633 218.055634,73.711472 
	C214.236206,73.700279 211.710358,75.726036 211.044250,79.502579 
	C210.672653,81.609451 210.665985,83.848610 210.911057,85.980309 
	C211.272888,89.127586 209.997223,90.538857 207.136429,91.891167 
	C196.796265,96.779030 191.819199,105.200050 191.888489,116.667343 
	C191.956543,127.929581 197.810120,134.995865 207.885605,139.027786 
	C212.820541,141.002609 217.908417,142.617172 222.762665,144.766190 
	C228.825821,147.450363 230.721573,151.202133 229.273911,156.533310 
	C227.699005,162.333084 222.973328,165.643723 216.940994,165.173309 
	C211.001984,164.710205 207.559250,160.905075 206.249329,153.356247 
	C205.453445,148.769684 202.570160,146.064133 198.710190,146.281815 
	C194.605911,146.513306 191.763367,149.818619 191.932907,154.569824 
	C192.267441,163.944305 196.312714,171.808304 204.651077,175.747192 
	C210.437164,178.480469 211.169907,181.950073 210.952423,187.274277 
	C210.718079,193.011551 213.008789,194.983887 219.851425,195.273239 
z"/>
<path fill="#51BE37" opacity="1.000000" stroke="none" 
	d="
M418.296692,63.108307 
	C417.764832,58.072517 417.084869,53.394936 416.304565,48.027027 
	C437.557251,56.777431 458.657501,65.465073 480.415924,74.423706 
	C466.650269,93.046120 453.161285,111.294258 439.090149,130.329956 
	C437.886505,125.709801 436.919617,122.049828 435.980560,118.382721 
	C434.345734,111.998451 432.471191,110.263176 425.923737,110.280647 
	C390.830597,110.374260 361.062042,122.027306 339.175751,150.592682 
	C338.704529,151.207733 338.182251,151.783676 336.516235,151.970734 
	C337.653687,146.914215 338.448334,141.750854 339.985291,136.818832 
	C348.732513,108.749802 364.606628,86.321884 391.908173,73.595680 
	C397.843140,70.829178 404.679138,70.054810 410.949402,67.920181 
	C413.552795,67.033882 415.760773,64.986092 418.296692,63.108307 
z"/>
<path fill="#AD6446" opacity="1.000000" stroke="none" 
	d="
M378.999878,370.607086 
	C365.834625,370.605682 353.168945,370.673767 340.504364,370.582886 
	C328.952850,370.500000 323.758881,365.230560 323.705994,353.704254 
	C323.662415,344.205536 323.629333,334.705811 323.718170,325.207733 
	C323.814392,314.921570 329.230255,309.252075 339.385895,309.211914 
	C367.382263,309.101166 395.379578,309.106354 423.376007,309.207245 
	C433.591248,309.244049 439.078735,314.893494 439.160156,325.087524 
	C439.238647,334.919128 439.232574,344.752197 439.161499,354.583893 
	C439.085968,365.036377 433.696960,370.461914 422.994629,370.566528 
	C408.497650,370.708252 393.998230,370.605286 378.999878,370.607086 
M342.313965,358.314789 
	C351.769806,364.142029 361.356903,364.001984 369.333282,357.920135 
	C376.641113,352.348053 379.890015,342.598755 377.362793,333.824829 
	C374.618134,324.295868 366.390961,317.712189 356.553833,317.172699 
	C347.219666,316.660797 338.050720,322.589691 334.508179,331.427979 
	C330.711609,340.900208 333.296844,350.396973 342.313965,358.314789 
z"/>
<path fill="#AF6547" opacity="1.000000" stroke="none" 
	d="
M84.000092,155.685822 
	C96.495766,155.686066 108.492462,155.772568 120.486435,155.630035 
	C123.740166,155.591370 125.468704,156.238007 126.414787,159.859970 
	C129.869370,173.085342 136.198669,184.923889 144.946564,195.452866 
	C145.640533,196.288132 146.202255,197.233292 147.238235,198.719620 
	C145.465637,198.811676 144.373535,198.917618 143.281403,198.917923 
	C114.291870,198.925964 85.301994,199.006302 56.312950,198.887207 
	C41.709778,198.827209 31.638655,186.977753 34.108128,173.162476 
	C35.801205,163.690689 44.113365,156.192841 54.015129,155.853210 
	C63.833813,155.516434 73.671013,155.719604 84.000092,155.685822 
z"/>
<path fill="#AD6446" opacity="1.000000" stroke="none" 
	d="
M328.705109,191.708954 
	C335.136749,192.232376 336.620209,190.642838 338.896820,185.113358 
	C342.544098,176.254791 346.700714,167.579605 351.179138,159.110947 
	C352.118317,157.334976 355.306915,156.076096 357.594696,155.827332 
	C362.203156,155.326233 366.907379,155.775879 371.567383,155.653687 
	C374.530212,155.575989 375.791229,156.751755 375.773773,159.749420 
	C375.705994,171.407272 375.718414,183.065903 375.770691,194.723938 
	C375.783600,197.602844 374.720581,198.966003 371.659546,198.959641 
	C344.351746,198.902863 317.043762,198.926559 288.756134,198.926559 
	C289.939636,197.239090 290.645844,196.079498 291.498596,195.040115 
	C299.299011,185.532532 305.019653,174.896317 308.801544,163.211197 
	C311.567535,154.665115 311.545135,154.657867 321.046753,156.169647 
	C321.713745,164.406647 322.171631,172.668091 323.131958,180.870743 
	C323.601227,184.879044 323.802216,189.373795 328.705109,191.708954 
z"/>
<path fill="#040301" opacity="1.000000" stroke="none" 
	d="
M219.487762,195.371338 
	C213.008789,194.983887 210.718079,193.011551 210.952423,187.274277 
	C211.169907,181.950073 210.437164,178.480469 204.651077,175.747192 
	C196.312714,171.808304 192.267441,163.944305 191.932907,154.569824 
	C191.763367,149.818619 194.605911,146.513306 198.710190,146.281815 
	C202.570160,146.064133 205.453445,148.769684 206.249329,153.356247 
	C207.559250,160.905075 211.001984,164.710205 216.940994,165.173309 
	C222.973328,165.643723 227.699005,162.333084 229.273911,156.533310 
	C230.721573,151.202133 228.825821,147.450363 222.762665,144.766190 
	C217.908417,142.617172 212.820541,141.002609 207.885605,139.027786 
	C197.810120,134.995865 191.956543,127.929581 191.888489,116.667343 
	C191.819199,105.200050 196.796265,96.779030 207.136429,91.891167 
	C209.997223,90.538857 211.272888,89.127586 210.911057,85.980309 
	C210.665985,83.848610 210.672653,81.609451 211.044250,79.502579 
	C211.710358,75.726036 214.236206,73.700279 218.055634,73.711472 
	C221.861847,73.722633 225.344925,75.854538 224.869522,79.482582 
	C223.782745,87.776207 227.920105,91.540031 234.420151,95.425194 
	C240.770157,99.220695 243.712692,106.126274 244.126938,113.715729 
	C244.414597,118.986115 242.008270,122.359207 237.760773,122.844330 
	C233.595016,123.320114 230.634476,120.470383 229.799698,115.181229 
	C228.220367,105.174652 218.551437,100.530273 211.086884,106.192711 
	C204.472809,111.209991 204.689011,120.449036 211.910461,124.492256 
	C216.218094,126.904060 221.075836,128.362427 225.742844,130.097290 
	C235.691528,133.795517 243.569031,139.197388 244.136078,151.121155 
	C244.733551,163.684570 239.376114,172.737411 227.930939,177.752426 
	C224.248596,179.365952 225.356079,181.939255 225.301346,184.342621 
	C225.197388,188.906494 225.648972,193.603851 219.487762,195.371338 
z"/>
<path fill="#030201" opacity="1.000000" stroke="none" 
	d="
M342.013763,358.105774 
	C333.296844,350.396973 330.711609,340.900208 334.508179,331.427979 
	C338.050720,322.589691 347.219666,316.660797 356.553833,317.172699 
	C366.390961,317.712189 374.618134,324.295868 377.362793,333.824829 
	C379.890015,342.598755 376.641113,352.348053 369.333282,357.920135 
	C361.356903,364.001984 351.769806,364.142029 342.013763,358.105774 
M360.557831,346.230225 
	C366.538239,341.507172 363.174744,333.026703 357.186523,332.013519 
	C353.589020,331.404846 350.565918,332.488068 348.659332,335.697968 
	C346.664764,339.056091 346.930939,342.444489 349.592926,345.310181 
	C352.569550,348.514679 356.138214,348.882385 360.557831,346.230225 
z"/>
<path fill="#AB6345" opacity="1.000000" stroke="none" 
	d="
M360.252380,346.469666 
	C356.138214,348.882385 352.569550,348.514679 349.592926,345.310181 
	C346.930939,342.444489 346.664764,339.056091 348.659332,335.697968 
	C350.565918,332.488068 353.589020,331.404846 357.186523,332.013519 
	C363.174744,333.026703 366.538239,341.507172 360.252380,346.469666 
z"/>
</svg>